<svg width="1280" height="294" viewBox="0 0 1280 294" fill="none" xmlns="http://www.w3.org/2000/svg">
<g clip-path="url(#clip0_12133_669)">
<g clip-path="url(#clip1_12133_669)">
<path d="M323.829 294.261C317.134 294.261 310.442 293.584 303.756 292.23C297.061 290.877 290.764 288.677 284.861 285.631C278.958 282.585 273.837 279.031 269.511 274.971L282.795 234.022C287.713 240.79 293.569 245.64 300.36 248.573C307.148 251.502 314.183 252.973 321.465 252.973C329.732 252.973 336.764 250.605 342.571 245.866C348.375 241.129 352.758 234.19 355.708 225.054C358.661 215.915 360.431 204.468 361.021 190.704L361.316 164.645H357.481C356.298 180.212 353.791 192.622 349.952 201.871C346.114 211.125 341.243 217.894 335.34 222.177C329.437 226.466 322.543 228.606 314.674 228.606C305.821 228.606 298.44 225.789 292.536 220.146C286.632 214.509 282.251 206.048 279.4 194.765C276.545 183.485 275.12 169.161 275.12 151.784V63.1187H316.152V139.94C316.152 156.412 317.48 168.367 320.138 175.813C322.793 183.258 326.971 186.98 332.682 186.98C336.225 186.98 339.275 185.743 341.833 183.258C344.389 180.778 346.505 177.114 348.179 172.259C349.85 167.41 351.081 161.488 351.87 154.493C352.653 147.503 353.053 139.601 353.053 130.802V63.1187H394.674V192.396C394.674 202.549 393.885 212.59 392.311 222.515C390.737 232.446 388.373 241.636 385.228 250.096C382.079 258.557 377.702 266.225 372.09 273.11C366.482 279.99 359.739 285.235 351.87 288.845C343.998 292.453 334.648 294.261 323.829 294.261Z" fill="#FF4932"/>
<path d="M475.564 210.669C480.288 210.669 484.222 208.639 487.371 204.579C490.517 200.518 492.88 194.373 494.454 186.133C496.029 177.901 496.817 167.469 496.817 154.83C496.817 141.072 495.978 129.788 494.307 120.989C492.633 112.188 490.125 105.706 486.781 101.529C483.433 97.3563 479.204 95.268 474.086 95.268C468.969 95.268 464.787 97.2458 461.542 101.19C458.294 105.14 455.883 111.513 454.311 120.311C452.731 129.11 451.948 140.167 451.948 153.477C451.948 172.883 453.911 187.266 457.852 196.626C461.786 205.99 467.689 210.669 475.564 210.669ZM474.381 246.204C460.407 246.204 448.7 242.592 439.254 235.375C429.81 228.157 422.673 217.608 417.853 203.732C413.027 189.857 410.619 172.655 410.619 152.123C410.619 130.917 413.226 113.431 418.443 99.6668C423.654 85.908 431.087 75.587 440.729 68.7023C450.371 61.8227 461.587 58.3798 474.381 58.3798C488.355 58.3798 500.066 61.7647 509.512 68.5321C518.956 75.3012 526.189 85.5119 531.208 99.1602C536.226 112.812 538.734 130.242 538.734 151.446C538.734 173.105 536.124 190.99 530.913 205.085C525.696 219.189 518.314 229.568 508.775 236.221C499.226 242.873 487.762 246.204 474.381 246.204Z" fill="#FF4932"/>
<path d="M595.698 246.203C581.529 246.203 570.998 240.058 564.114 227.759C557.22 215.465 553.782 196.344 553.782 170.398V63.1173H595.698V162.613C595.698 177.282 596.927 187.826 599.389 194.255C601.845 200.685 605.927 203.901 611.641 203.901C615.576 203.901 618.872 202.547 621.527 199.839C624.185 197.132 626.545 193.187 628.613 187.994C630.679 182.807 632.054 176.436 632.747 168.874C633.433 161.318 633.876 152.915 634.074 143.662V63.1173H675.4V162.275V241.466H641.456V179.873H637.617C636.239 195.894 633.824 208.755 630.384 218.454C626.937 228.156 622.313 235.205 616.509 239.604C610.702 244.003 603.766 246.203 595.698 246.203Z" fill="#FF4932"/>
<path d="M81.1794 58.3789C72.9139 58.3789 65.9254 60.7475 60.2211 65.4859C54.5096 70.2233 49.7872 77.3887 46.0502 86.975C42.3095 96.5682 39.6532 109.259 38.0797 125.048H33.6524C34.4357 119.633 35.1753 113.43 35.8668 106.435C36.5534 99.4451 37.2919 92.1693 38.0797 84.6064C38.8642 77.0501 39.506 70.0007 39.9988 63.4546C40.488 56.9146 40.7372 51.2716 40.7372 46.5342V6.26215H0L0.295155 138.923V241.466H41.3276V162.952C41.1289 150.091 41.9179 139.093 43.6901 129.955C45.4599 120.818 48.0162 113.711 51.3653 108.635C54.707 103.558 58.9369 101.019 64.0581 101.019C69.7624 101.019 73.9465 104.236 76.604 110.665C79.2591 117.094 80.5891 127.534 80.5891 141.97V241.466H122.212V135.539C122.212 109.37 118.914 89.9692 112.321 77.3307C105.727 64.6973 95.3479 58.3789 81.1794 58.3789Z" fill="#6D0127"/>
<path d="M188.189 102.544C191.437 98.1448 195.717 95.9447 201.03 95.9447C205.753 95.9447 209.784 97.8646 213.133 101.699C216.478 105.537 218.788 111.29 220.07 118.957C220.804 123.36 221.119 128.414 221.043 134.079L178.925 135.703C179.342 130.698 179.97 126.075 180.809 121.834C182.48 113.373 184.942 106.944 188.189 102.544ZM221.988 189.857C221.2 194.035 220.07 197.64 218.596 200.686C217.118 203.732 215.052 206.102 212.395 207.794C209.739 209.485 206.64 210.332 203.097 210.332C194.831 210.332 188.632 205.711 184.499 196.456C180.913 188.431 178.886 176.15 178.412 159.626L258.298 157.876C259.673 143.212 259.575 129.904 258.003 117.942C256.426 105.986 253.28 95.4957 248.557 86.4689C243.834 77.4475 237.534 70.51 229.664 65.6556C221.791 60.8063 212.344 58.3798 201.325 58.3798C189.517 58.3798 179.577 61.0341 171.511 66.3334C163.439 71.6371 156.847 78.8007 151.732 87.8224C146.613 96.8493 143.024 107.283 140.958 119.127C138.892 130.971 137.858 143.102 137.858 155.507C137.858 168.821 138.988 181.004 141.254 192.057C143.513 203.114 147.254 212.59 152.47 220.485C157.683 228.385 164.472 234.645 172.838 239.267C181.201 243.888 191.482 246.204 203.687 246.204C214.707 246.204 224.005 244.226 231.583 240.282C239.157 236.337 245.111 231.262 249.442 225.054C253.769 218.849 256.721 211.854 258.298 204.07C259.871 196.287 260.559 188.561 260.365 180.888L222.876 176.151C223.069 181.116 222.772 185.685 221.988 189.857Z" fill="#6D0127"/>
<path d="M757.766 200.858C753.043 200.858 749.352 198.886 746.697 194.935C744.039 190.992 742.711 184.841 742.711 176.491V101.022H770.756V63.1188H742.711V26.5703H717.03L715.257 42.4754C714.27 51.2745 712.256 57.4244 709.206 60.9201C706.154 64.4213 701.187 66.2815 694.299 66.5041H687.511V100.346H702.27V183.935C702.27 204.696 706.253 220.037 714.225 229.962C722.196 239.891 733.855 244.853 749.205 244.853C752.748 244.853 756.189 244.514 759.536 243.838C762.881 243.161 766.918 242.256 771.641 241.13V196.458C769.082 198.039 766.668 199.165 764.407 199.842C762.143 200.52 759.928 200.858 757.766 200.858Z" fill="#6D0127"/>
<path d="M868.156 58.378C859.892 58.378 852.902 60.7465 847.198 65.4849C841.487 70.2224 836.764 77.3877 833.028 86.974C829.286 96.5672 826.631 109.258 825.056 125.047H820.628C821.414 119.632 822.151 113.429 822.844 106.434C823.53 99.4441 824.268 92.1683 825.056 84.6055C825.842 77.0491 826.483 69.9998 826.977 63.4536C827.465 56.9136 827.715 51.2706 827.715 46.5332V6.26118H786.979L787.274 138.922V241.465H828.305V162.951C828.106 150.09 828.895 139.092 830.668 129.954C832.438 120.817 834.994 113.71 838.341 108.634C841.686 103.557 845.915 101.019 851.036 101.019C856.74 101.019 860.925 104.235 863.58 110.664C866.238 117.093 867.566 127.533 867.566 141.969V241.465H909.19V135.538C909.19 109.369 905.89 89.9682 899.298 77.3297C892.705 64.6964 882.325 58.378 868.156 58.378Z" fill="#6D0127"/>
<path d="M975.17 102.544C978.415 98.1448 982.696 95.9447 988.009 95.9447C992.732 95.9447 996.763 97.8646 1000.11 101.699C1003.46 105.537 1005.77 111.29 1007.05 118.957C1007.78 123.36 1008.1 128.414 1008.02 134.079L965.904 135.703C966.323 130.698 966.949 126.075 967.789 121.834C969.459 113.373 971.922 106.944 975.17 102.544ZM1008.97 189.857C1008.18 194.035 1007.05 197.64 1005.57 200.686C1004.1 203.732 1002.03 206.102 999.376 207.794C996.718 209.485 993.62 210.332 990.077 210.332C981.811 210.332 975.612 205.711 971.479 196.456C967.891 188.431 965.865 176.15 965.392 159.626L1045.28 157.876C1046.65 143.212 1046.55 129.904 1044.98 117.942C1043.41 105.986 1040.26 95.4957 1035.54 86.4689C1030.81 77.4475 1024.51 70.51 1016.64 65.6556C1008.77 60.8063 999.325 58.3798 988.304 58.3798C976.498 58.3798 966.557 61.0341 958.49 66.3334C950.419 71.6371 943.826 78.8007 938.712 87.8224C933.591 96.8493 930.003 107.283 927.938 119.127C925.872 130.971 924.837 143.102 924.837 155.507C924.837 168.821 925.969 181.004 928.233 192.057C930.493 203.114 934.232 212.59 939.449 220.485C944.663 228.385 951.451 234.645 959.817 239.267C968.18 243.888 978.463 246.204 990.667 246.204C1001.69 246.204 1010.98 244.226 1018.56 240.282C1026.14 236.337 1032.09 231.262 1036.42 225.054C1040.75 218.849 1043.7 211.854 1045.28 204.07C1046.85 196.287 1047.54 188.561 1047.35 180.888L1009.86 176.151C1010.05 181.116 1009.75 185.685 1008.97 189.857Z" fill="#6D0127"/>
<path d="M1141.51 60.0697C1134.22 60.0697 1127.83 62.3858 1122.32 67.0083C1116.81 71.6353 1112.43 78.969 1109.18 89.0057C1105.94 99.0476 1103.92 112.98 1103.13 130.8H1099L1098.7 63.115H1063.87L1064.16 146.368V241.465H1106.08V167.35C1105.88 154.944 1107.16 144.676 1109.92 136.553C1112.68 128.431 1116.46 122.286 1121.29 118.11C1126.11 113.938 1131.57 111.849 1137.67 111.849C1139.24 111.849 1141.26 112.134 1143.72 112.695C1146.18 113.261 1148.39 113.996 1150.36 114.895L1152.43 62.1014C1150.46 61.2007 1148.54 60.6357 1146.67 60.4079C1144.8 60.1871 1143.08 60.0697 1141.51 60.0697Z" fill="#6D0127"/>
<path d="M1207.79 102.543C1211.04 98.1439 1215.32 95.9438 1220.63 95.9438C1225.35 95.9438 1229.38 97.8636 1232.73 101.698C1236.08 105.536 1238.39 111.289 1239.67 118.956C1240.4 123.359 1240.72 128.413 1240.64 134.078L1198.52 135.702C1198.94 130.697 1199.57 126.074 1200.41 121.833C1202.08 113.372 1204.54 106.943 1207.79 102.543ZM1242.48 176.15C1242.67 181.115 1242.37 185.684 1241.59 189.856C1240.8 194.034 1239.67 197.639 1238.19 200.685C1236.72 203.731 1234.65 206.101 1231.99 207.793C1229.34 209.484 1226.24 210.331 1222.7 210.331C1214.43 210.331 1208.23 205.71 1204.1 196.455C1200.51 188.43 1198.49 176.149 1198.01 159.625L1277.9 157.875C1279.27 143.211 1279.17 129.903 1277.6 117.941C1276.03 105.985 1272.88 95.4948 1268.16 86.4679C1263.43 77.4465 1257.13 70.509 1249.26 65.6546C1241.39 60.8054 1231.94 58.3788 1220.92 58.3788C1209.11 58.3788 1199.18 61.0331 1191.11 66.3324C1183.04 71.6362 1176.45 78.7997 1171.33 87.8214C1166.21 96.8483 1162.62 107.282 1160.56 119.126C1158.49 130.97 1157.46 143.101 1157.46 155.506C1157.46 168.82 1158.59 181.003 1160.85 192.056C1163.11 203.113 1166.85 212.589 1172.07 220.484C1177.28 228.384 1184.07 234.644 1192.44 239.266C1200.8 243.887 1211.08 246.203 1223.29 246.203C1234.31 246.203 1243.6 244.225 1251.18 240.281C1258.76 236.336 1264.71 231.261 1269.04 225.053C1273.37 218.848 1276.32 211.853 1277.9 204.069C1279.47 196.286 1280.16 188.56 1279.96 180.887L1242.48 176.15Z" fill="#6D0127"/>
</g>
</g>
<defs>
<clipPath id="clip0_12133_669">
<rect width="1280" height="294" fill="white"/>
</clipPath>
<clipPath id="clip1_12133_669">
<rect width="1280" height="288" fill="white" transform="translate(0 6.26074)"/>
</clipPath>
</defs>
</svg>
